<?xml version="1.0" encoding="UTF-8" standalone="no"?>
<svg
   xmlns:dc="http://purl.org/dc/elements/1.1/"
   xmlns:cc="http://creativecommons.org/ns#"
   xmlns:rdf="http://www.w3.org/1999/02/22-rdf-syntax-ns#"
   xmlns:svg="http://www.w3.org/2000/svg"
   xmlns="http://www.w3.org/2000/svg"
   xmlns:sodipodi="http://sodipodi.sourceforge.net/DTD/sodipodi-0.dtd"
   xmlns:inkscape="http://www.inkscape.org/namespaces/inkscape"
   sodipodi:docname="Logo.svg"
   inkscape:version="1.0 (4035a4fb49, 2020-05-01)"
   id="svg8"
   version="1.1"
   viewBox="0 0 210 297"
   height="297mm"
   width="210mm">
  <defs
     id="defs2" />
  <sodipodi:namedview
     inkscape:window-maximized="1"
     inkscape:window-y="-8"
     inkscape:window-x="-8"
     inkscape:window-height="1011"
     inkscape:window-width="1920"
     showborder="false"
     showgrid="false"
     inkscape:document-rotation="0"
     inkscape:current-layer="layer1"
     inkscape:document-units="mm"
     inkscape:cy="196.65304"
     inkscape:cx="72.145398"
     inkscape:zoom="0.25"
     inkscape:pageshadow="2"
     inkscape:pageopacity="0.0"
     borderopacity="1.0"
     bordercolor="#666666"
     pagecolor="#ffffff"
     id="base" />
  <metadata
     id="metadata5">
    <rdf:RDF>
      <cc:Work
         rdf:about="">
        <dc:format>image/svg+xml</dc:format>
        <dc:type
           rdf:resource="http://purl.org/dc/dcmitype/StillImage" />
        <dc:title />
      </cc:Work>
    </rdf:RDF>
  </metadata>
  <g
     id="layer1"
     inkscape:groupmode="layer"
     inkscape:label="Layer 1">
    <text
       id="text835"
       y="94.657013"
       x="44.849533"
       style="font-style:normal;font-weight:normal;font-size:10.5833px;line-height:1.25;font-family:sans-serif;fill:#000000;fill-opacity:1;stroke:none;stroke-width:0.264583"
       xml:space="preserve"><tspan
         style="stroke-width:0.264583"
         y="94.657013"
         x="44.849533"
         id="tspan833"
         sodipodi:role="line" /></text>
    <g
       id="g875"
       inkscape:export-xdpi="96.099998"
       inkscape:export-ydpi="96.099998"
       transform="translate(-66.675,-180.975)">
      <path
         id="path869"
         style="color:#000000;font-style:normal;font-variant:normal;font-weight:normal;font-stretch:normal;font-size:medium;line-height:normal;font-family:sans-serif;font-variant-ligatures:normal;font-variant-position:normal;font-variant-caps:normal;font-variant-numeric:normal;font-variant-alternates:normal;font-variant-east-asian:normal;font-feature-settings:normal;font-variation-settings:normal;text-indent:0;text-align:start;text-decoration:none;text-decoration-line:none;text-decoration-style:solid;text-decoration-color:#000000;letter-spacing:normal;word-spacing:normal;text-transform:none;writing-mode:lr-tb;direction:ltr;text-orientation:mixed;dominant-baseline:auto;baseline-shift:baseline;text-anchor:start;white-space:normal;shape-padding:0;shape-margin:0;inline-size:0;clip-rule:nonzero;display:inline;overflow:visible;visibility:visible;isolation:auto;mix-blend-mode:normal;color-interpolation:sRGB;color-interpolation-filters:linearRGB;solid-color:#000000;solid-opacity:1;vector-effect:none;fill:#4db6ac;fill-opacity:1;fill-rule:nonzero;stroke:#354043;stroke-width:2.95067;stroke-linecap:butt;stroke-linejoin:miter;stroke-miterlimit:4;stroke-dasharray:none;stroke-dashoffset:0;stroke-opacity:1;color-rendering:auto;image-rendering:auto;shape-rendering:auto;text-rendering:auto;enable-background:accumulate;stop-color:#000000"
         d="m 134.81632,159.00595 c -7.84575,0 -14.20751,6.363 -14.20751,14.20875 v 18.11529 h 2.95089 V 173.2147 c 0,-6.26198 4.99464,-11.25786 11.25662,-11.25786 h 9.0905 c 6.26198,0 11.25693,4.99588 11.25693,11.25786 v 18.11529 18.1153 c 0,7.84574 6.36177,14.20874 14.20751,14.20874 h 9.0905 c 7.84575,0 14.20782,-6.363 14.20782,-14.20874 v -18.1153 h -2.95089 v 18.1153 c 0,6.26197 -4.99495,11.25785 -11.25693,11.25785 h -9.0905 c -6.26198,0 -11.25662,-4.99588 -11.25662,-11.25785 v -18.1153 -18.11529 c 0,-7.84575 -6.36207,-14.20875 -14.20782,-14.20875 z m -18.10357,33.02212 c -1.66672,0 -3.00858,1.34156 -3.00858,3.00827 v 0.59351 c 0,1.66671 1.34186,3.00826 3.00858,3.00826 h 10.26024 c 1.66671,0 3.00857,-1.34155 3.00857,-3.00826 v -0.59351 c 0,-1.66671 -1.34186,-3.00827 -3.00857,-3.00827 z" />
      <path
         id="path894"
         style="color:#000000;font-style:normal;font-variant:normal;font-weight:normal;font-stretch:normal;font-size:medium;line-height:normal;font-family:sans-serif;font-variant-ligatures:normal;font-variant-position:normal;font-variant-caps:normal;font-variant-numeric:normal;font-variant-alternates:normal;font-variant-east-asian:normal;font-feature-settings:normal;font-variation-settings:normal;text-indent:0;text-align:start;text-decoration:none;text-decoration-line:none;text-decoration-style:solid;text-decoration-color:#000000;letter-spacing:normal;word-spacing:normal;text-transform:none;writing-mode:lr-tb;direction:ltr;text-orientation:mixed;dominant-baseline:auto;baseline-shift:baseline;text-anchor:start;white-space:normal;shape-padding:0;shape-margin:0;inline-size:0;clip-rule:nonzero;display:inline;overflow:visible;visibility:visible;isolation:auto;mix-blend-mode:normal;color-interpolation:sRGB;color-interpolation-filters:linearRGB;solid-color:#000000;solid-opacity:1;vector-effect:none;fill:#354043;fill-opacity:1;fill-rule:nonzero;stroke:none;stroke-width:2.95067;stroke-linecap:butt;stroke-linejoin:miter;stroke-miterlimit:4;stroke-dasharray:none;stroke-dashoffset:0;stroke-opacity:1;color-rendering:auto;image-rendering:auto;shape-rendering:auto;text-rendering:auto;enable-background:accumulate;stop-color:#000000"
         d="m 116.08345,197.51156 c -3.28713,0 -6.09067,2.2015 -7.97381,5.35145 -1.88314,3.14995 -2.97865,7.34768 -2.97865,11.97507 0,4.62738 1.09551,8.82604 2.97865,11.97599 1.72905,2.89219 4.23424,4.98255 7.17702,5.30549 v -2.98174 c -1.68419,-0.31153 -3.31129,-1.60812 -4.64443,-3.83807 -1.54249,-2.58015 -2.56035,-6.30766 -2.56035,-10.46167 0,-4.15402 1.01786,-7.88153 2.56035,-10.46168 1.5425,-2.58016 3.47857,-3.91396 5.44122,-3.91396 h 12.04818 c 1.96266,0 3.89872,1.3338 5.44122,3.91396 1.5425,2.58015 2.56036,6.30766 2.56036,10.46168 0,4.15401 -1.01786,7.88152 -2.56036,10.46167 -1.5425,2.58016 -3.47856,3.91396 -5.44122,3.91396 h -0.54169 v 2.95058 h 0.54169 c 3.28714,0 6.09068,-2.20028 7.97381,-5.35022 1.88314,-3.14995 2.97865,-7.34861 2.97865,-11.97599 0,-4.62739 -1.09551,-8.82512 -2.97865,-11.97507 -1.88313,-3.14995 -4.68667,-5.35145 -7.97381,-5.35145 z" />
      <rect
         style="fill:#f8f8f8;fill-opacity:1;stroke:#354043;stroke-width:0.918092;stroke-miterlimit:4;stroke-dasharray:none;stroke-opacity:1"
         id="rect898"
         width="4.1201682"
         height="9.6284819"
         x="115.01565"
         y="225.66736"
         rx="9.4761677"
         ry="3.2179184" />
      <rect
         ry="3.2179184"
         rx="9.4761677"
         y="225.81337"
         x="123.38669"
         height="9.6284819"
         width="4.1201682"
         id="rect900"
         style="fill:none;stroke:#354043;stroke-width:0.918092;stroke-miterlimit:4;stroke-dasharray:none;stroke-opacity:1" />
      <rect
         ry="3.1288674"
         rx="12.137795"
         y="182.28835"
         x="181.28291"
         height="9.3620281"
         width="5.2774243"
         id="rect902"
         style="fill:none;stroke:#354043;stroke-width:1.02458;stroke-miterlimit:4;stroke-dasharray:none;stroke-opacity:1" />
      <rect
         style="fill:none;stroke:#354043;stroke-width:0.759306;stroke-miterlimit:4;stroke-dasharray:none;stroke-opacity:1"
         id="rect904"
         width="2.3871975"
         height="5.3419514"
         x="195.9843"
         y="184.56186"
         rx="5.4904275"
         ry="1.7853245" />
      <path
         id="rect906"
         style="fill:#4db6ac;fill-opacity:1;stroke:#354043;stroke-width:0.922127;stroke-miterlimit:4;stroke-dasharray:none;stroke-opacity:1"
         d="m 189.75568,184.67772 h 2.98093 c 0.93198,0 2.65946,1.18612 2.65946,2.65946 0,1.47333 -1.18612,2.65945 -2.65946,2.65945 h -2.98093 c -1.47334,0 -2.65945,-1.18612 -2.65945,-2.65945 0,-1.47334 1.18611,-2.65946 2.65945,-2.65946 z"
         sodipodi:nodetypes="sssssss" />
      <path
         transform="scale(0.26458333)"
         id="path859"
         d="m 473.2632,887.69194 c -1.30109,-0.4784 -2.57088,-1.82812 -3.6646,-3.89528 -0.9362,-1.76944 -1.07968,-3.01823 -1.24461,-10.83257 -0.2116,-10.02544 0.35785,-13.18619 2.85777,-15.86237 1.78303,-1.90874 3.44944,-1.99705 5.4778,-0.2903 2.66812,2.24508 3.17233,4.92139 2.98694,15.85457 -0.1559,9.19429 -0.2197,9.72917 -1.40792,11.80469 -0.99766,1.74264 -3.32033,3.74338 -4.10555,3.5365 -0.0824,-0.0217 -0.48733,-0.16357 -0.89983,-0.31524 z"
         style="fill:#f8f8f8;fill-opacity:1;stroke:#f8f8f8;stroke-width:1.88976;stroke-opacity:1" />
      <path
         transform="scale(0.26458333)"
         id="path861"
         d="m 692.0132,721.11638 c -3.94047,-2.43401 -4.7005,-4.69704 -4.72527,-14.06972 -0.0205,-7.76267 0.34266,-9.9214 2.1055,-12.51533 3.34582,-4.92322 9.47851,-4.15201 12.39169,1.5583 0.85973,1.68521 0.97808,2.96885 0.97808,10.60847 0,8.13035 -0.075,8.83349 -1.16224,10.89492 -2.14848,4.07357 -6.25432,5.5824 -9.58776,3.52336 z"
         style="fill:#f8f8f8;fill-opacity:1;stroke:#f8f8f8;stroke-width:1.88976;stroke-opacity:1" />
      <path
         transform="scale(0.26458333)"
         id="path863"
         d="m 743.39973,714.69452 c -0.71568,-1.09156 -0.88653,-2.43322 -0.88653,-6.9619 0,-4.92524 0.12861,-5.78219 1.05396,-7.02286 1.3102,-1.75666 2.06495,-1.77898 3.31983,-0.0982 1.90705,2.5543 1.79137,12.26424 -0.17122,14.37082 -1.32413,1.4213 -2.24803,1.3411 -3.31604,-0.28785 z"
         style="fill:#f8f8f8;fill-opacity:1;stroke:#f8f8f8;stroke-width:1.88976;stroke-opacity:1" />
    </g>
  </g>
</svg>
